<svg xmlns="http://www.w3.org/2000/svg" xmlns:xlink="http://www.w3.org/1999/xlink" width="500" zoomAndPan="magnify" viewBox="0 0 375 374.999991" height="500" preserveAspectRatio="xMidYMid meet" version="1.0"><defs><clipPath id="4528a9825a"><path d="M 108 84.636719 L 337.777344 84.636719 L 337.777344 342.125 L 108 342.125 Z M 108 84.636719 " clip-rule="nonzero"/></clipPath><clipPath id="a74f2b8a0d"><path d="M 77.597656 33 L 320 33 L 320 304 L 77.597656 304 Z M 77.597656 33 " clip-rule="nonzero"/></clipPath></defs><g clip-path="url(#4528a9825a)"><path fill="#5b0000" d="M 108.238281 319.066406 L 108.238281 107.742188 C 108.238281 90.023438 127.464844 78.945312 142.839844 87.8125 L 326.246094 193.46875 C 341.621094 202.328125 341.621094 224.480469 326.246094 233.339844 L 142.839844 339.007812 C 127.464844 347.867188 108.238281 336.792969 108.238281 319.066406 " fill-opacity="1" fill-rule="nonzero"/></g><g clip-path="url(#a74f2b8a0d)"><path fill="#000000" d="M 106.734375 45.929688 C 103.804688 45.929688 100.886719 46.695312 98.226562 48.238281 C 92.902344 51.300781 89.726562 56.792969 89.726562 62.929688 L 89.726562 274.257812 C 89.726562 280.390625 92.902344 285.882812 98.226562 288.957031 C 103.550781 292.019531 109.90625 292.019531 115.230469 288.957031 L 298.644531 183.289062 C 303.972656 180.214844 307.144531 174.722656 307.144531 168.585938 C 307.144531 162.460938 303.972656 156.96875 298.644531 153.894531 L 115.230469 48.238281 C 112.570312 46.695312 109.652344 45.929688 106.734375 45.929688 Z M 106.734375 303.375 C 101.730469 303.375 96.726562 302.058594 92.160156 299.433594 C 83.046875 294.175781 77.597656 284.769531 77.597656 274.257812 L 77.597656 62.929688 C 77.597656 52.414062 83.046875 43.007812 92.160156 37.753906 C 101.285156 32.503906 112.171875 32.496094 121.296875 37.753906 L 304.710938 143.421875 C 313.824219 148.667969 319.273438 158.085938 319.273438 168.585938 C 319.273438 179.101562 313.824219 188.515625 304.710938 193.765625 L 121.296875 299.433594 C 116.738281 302.058594 111.734375 303.375 106.734375 303.375 " fill-opacity="1" fill-rule="nonzero"/></g></svg>