<svg xmlns="http://www.w3.org/2000/svg" viewBox="0 0 64 64"><radialGradient id="UsAA~nDm8SXvpvZsv5GRAa" cx="31.065" cy="33.304" r="26.413" gradientUnits="userSpaceOnUse"><stop offset="0" stop-color="#afeeff"/><stop offset=".193" stop-color="#bbf1ff"/><stop offset=".703" stop-color="#d7f8ff"/><stop offset="1" stop-color="#e1faff"/></radialGradient><path fill="url(#UsAA~nDm8SXvpvZsv5GRAa)" d="M58,37h-6.5c-1.933,0-3.5,1.567-3.5,3.5v0c0,1.933,1.567,3.5,3.5,3.5H57c2.209,0,4,1.791,4,4v0c0,2.209-1.791,4-4,4h-4.5c-1.381,0-2.5,1.119-2.5,2.5v0c0,1.381,1.119,2.5,2.5,2.5h1c1.933,0,3.5,1.567,3.5,3.5v0c0,1.933-1.567,3.5-3.5,3.5h-46C5.567,64,4,62.433,4,60.5v0C4,58.567,5.567,57,7.5,57h4c1.381,0,2.5-1.119,2.5-2.5v0c0-1.381-1.119-2.5-2.5-2.5h-5C4.567,52,3,50.433,3,48.5v0C3,46.567,4.567,45,6.5,45H11c2.209,0,4-1.791,4-4v0c0-2.209-1.791-4-4-4H6c-2.209,0-4-1.791-4-4v0c0-2.209,1.791-4,4-4h5c2.209,0,4-1.791,4-4v0c0-2.209-1.791-4-4-4H9.5C7.567,21,6,19.433,6,17.5v0C6,15.567,7.567,14,9.5,14h12c1.933,0,3.5-1.567,3.5-3.5v0C25,8.567,23.433,7,21.5,7h-9C10.567,7,9,5.433,9,3.5v0C9,1.567,10.567,0,12.5,0l32,0C46.433,0,48,1.567,48,3.5v0C48,5.433,46.433,7,44.5,7h-5C37.567,7,36,8.567,36,10.5v0c0,1.933,1.567,3.5,3.5,3.5h9c1.933,0,3.5,1.567,3.5,3.5v0c0,1.933-1.567,3.5-3.5,3.5H45c-1.657,0-3,1.343-3,3v0c0,1.657,1.343,3,3,3h13c2.761,0,5,2.239,5,5v0C63,34.761,60.761,37,58,37z M57,3.5C57,1.567,55.433,0,53.5,0S50,1.567,50,3.5S51.567,7,53.5,7S57,5.433,57,3.5z"/><linearGradient id="UsAA~nDm8SXvpvZsv5GRAb" x1="14" x2="14" y1="59.261" y2="44.13" gradientUnits="userSpaceOnUse"><stop offset="0" stop-color="#ff8b67"/><stop offset=".847" stop-color="#ffa76a"/><stop offset="1" stop-color="#ffad6b"/><stop offset="1" stop-color="#ffad6b"/></linearGradient><path fill="url(#UsAA~nDm8SXvpvZsv5GRAb)" d="M14,58L14,58c-1.657,0-3-1.343-3-3v-9h6v9C17,56.657,15.657,58,14,58z"/><linearGradient id="UsAA~nDm8SXvpvZsv5GRAc" x1="50" x2="50" y1="59.261" y2="44.13" gradientUnits="userSpaceOnUse"><stop offset="0" stop-color="#ff8b67"/><stop offset=".847" stop-color="#ffa76a"/><stop offset="1" stop-color="#ffad6b"/><stop offset="1" stop-color="#ffad6b"/></linearGradient><path fill="url(#UsAA~nDm8SXvpvZsv5GRAc)" d="M50,58L50,58c-1.657,0-3-1.343-3-3v-9h6v9C53,56.657,51.657,58,50,58z"/><linearGradient id="UsAA~nDm8SXvpvZsv5GRAd" x1="34.5" x2="34.5" y1="45.174" y2="-.379" gradientUnits="userSpaceOnUse"><stop offset="0" stop-color="#ff634d"/><stop offset=".204" stop-color="#fe6464"/><stop offset=".521" stop-color="#fc6581"/><stop offset=".794" stop-color="#fa6694"/><stop offset=".989" stop-color="#fa669a"/><stop offset="1" stop-color="#fa669a"/></linearGradient><path fill="url(#UsAA~nDm8SXvpvZsv5GRAd)" d="M31,41h9V15c0-1.105-0.895-2-2-2h-5c-1.105,0-2,0.895-2,2l-2,12L31,41z"/><linearGradient id="UsAA~nDm8SXvpvZsv5GRAe" x1="15.5" x2="15.5" y1="51.304" y2="-2.304" gradientUnits="userSpaceOnUse"><stop offset="0" stop-color="#155cde"/><stop offset="1" stop-color="#2eb5f0"/></linearGradient><path fill="url(#UsAA~nDm8SXvpvZsv5GRAe)" d="M11,41h9V11c0-1.105-0.895-2-2-2h-5c-1.105,0-2,0.895-2,2V41z"/><linearGradient id="UsAA~nDm8SXvpvZsv5GRAf" x1="26.5" x2="26.5" y1="2.522" y2="55.05" gradientUnits="userSpaceOnUse"><stop offset="0" stop-color="#00d772"/><stop offset=".746" stop-color="#00b26e"/><stop offset="1" stop-color="#00b26e"/></linearGradient><path fill="url(#UsAA~nDm8SXvpvZsv5GRAf)" d="M22,41h9V11c0-1.105-0.895-2-2-2h-5c-1.105,0-2,0.895-2,2V41z"/><linearGradient id="UsAA~nDm8SXvpvZsv5GRAg" x1="46.914" x2="46.914" y1="14.652" y2="52.934" gradientUnits="userSpaceOnUse"><stop offset=".227" stop-color="#00bbd4"/><stop offset=".65" stop-color="#00b2cf"/><stop offset="1" stop-color="#00a6ca"/></linearGradient><path fill="url(#UsAA~nDm8SXvpvZsv5GRAg)" d="M48.505,39.898l3.951-1.307c1.049-0.347,1.618-1.478,1.271-2.527L47.85,18.3c-0.347-1.049-1.478-1.618-2.527-1.271l-3.951,1.307c-1.049,0.347-1.618,1.478-1.271,2.527l5.876,17.765C46.325,39.676,47.456,40.245,48.505,39.898z"/><linearGradient id="UsAA~nDm8SXvpvZsv5GRAh" x1="44.674" x2="44.674" y1="15.565" y2="26.578" gradientUnits="userSpaceOnUse"><stop offset="0" stop-color="#00e6e4"/><stop offset=".913" stop-color="#00bbd4"/><stop offset="1" stop-color="#00b2cf"/><stop offset="1" stop-color="#00b2cf"/></linearGradient><polygon fill="url(#UsAA~nDm8SXvpvZsv5GRAh)" points="41.196,24.172 48.944,21.609 48.151,19.21 40.403,21.773"/><linearGradient id="UsAA~nDm8SXvpvZsv5GRAi" x1="48.979" x2="48.979" y1="26.13" y2="42.263" gradientUnits="userSpaceOnUse"><stop offset="0" stop-color="#00e6e4"/><stop offset=".913" stop-color="#00bbd4"/><stop offset="1" stop-color="#00b2cf"/><stop offset="1" stop-color="#00b2cf"/></linearGradient><polygon fill="url(#UsAA~nDm8SXvpvZsv5GRAi)" points="45.502,37.25 53.25,34.687 52.456,32.288 44.708,34.851"/><linearGradient id="UsAA~nDm8SXvpvZsv5GRAj" x1="15.5" x2="15.5" y1="34.609" y2="6.794" gradientUnits="userSpaceOnUse"><stop offset="0" stop-color="#005ce2"/><stop offset=".278" stop-color="#0080e8"/><stop offset=".569" stop-color="#009ced"/><stop offset=".82" stop-color="#00b0f1"/><stop offset="1" stop-color="#00b5f2"/></linearGradient><rect width="9" height="3" x="11" y="13" fill="url(#UsAA~nDm8SXvpvZsv5GRAj)"/><linearGradient id="UsAA~nDm8SXvpvZsv5GRAk" x1="15.5" x2="15.5" y1="50.065" y2="19.277" gradientUnits="userSpaceOnUse"><stop offset="0" stop-color="#005ce2"/><stop offset=".278" stop-color="#0080e8"/><stop offset=".569" stop-color="#009ced"/><stop offset=".82" stop-color="#00b0f1"/><stop offset="1" stop-color="#00b5f2"/></linearGradient><rect width="9" height="3" x="11" y="33" fill="url(#UsAA~nDm8SXvpvZsv5GRAk)"/><linearGradient id="UsAA~nDm8SXvpvZsv5GRAl" x1="35.5" x2="35.5" y1="32.652" y2="9.373" gradientUnits="userSpaceOnUse"><stop offset="0" stop-color="#ff805f"/><stop offset=".117" stop-color="#fe816b"/><stop offset=".479" stop-color="#fd828b"/><stop offset=".782" stop-color="#fb839f"/><stop offset=".989" stop-color="#fb83a6"/></linearGradient><rect width="9" height="3" x="31" y="17" fill="url(#UsAA~nDm8SXvpvZsv5GRAl)"/><linearGradient id="UsAA~nDm8SXvpvZsv5GRAm" x1="35.5" x2="35.5" y1="43.348" y2="23.282" gradientUnits="userSpaceOnUse"><stop offset="0" stop-color="#ff805f"/><stop offset=".117" stop-color="#fe816b"/><stop offset=".479" stop-color="#fd828b"/><stop offset=".782" stop-color="#fb839f"/><stop offset=".989" stop-color="#fb83a6"/></linearGradient><rect width="9" height="3" x="31" y="33" fill="url(#UsAA~nDm8SXvpvZsv5GRAm)"/><linearGradient id="UsAA~nDm8SXvpvZsv5GRAn" x1="26.5" x2="26.5" y1="9.043" y2="29.939" gradientUnits="userSpaceOnUse"><stop offset="0" stop-color="#00d772"/><stop offset=".287" stop-color="#00d272"/><stop offset=".603" stop-color="#00c570"/><stop offset=".897" stop-color="#00b26e"/><stop offset=".996" stop-color="#00b26e"/></linearGradient><rect width="9" height="3" x="22" y="13" fill="url(#UsAA~nDm8SXvpvZsv5GRAn)"/><linearGradient id="UsAA~nDm8SXvpvZsv5GRAo" x1="26.5" x2="26.5" y1="29.13" y2="45.368" gradientUnits="userSpaceOnUse"><stop offset="0" stop-color="#00d772"/><stop offset=".287" stop-color="#00d272"/><stop offset=".603" stop-color="#00c570"/><stop offset=".897" stop-color="#00b26e"/><stop offset=".996" stop-color="#00b26e"/></linearGradient><rect width="9" height="3" x="22" y="33" fill="url(#UsAA~nDm8SXvpvZsv5GRAo)"/><linearGradient id="UsAA~nDm8SXvpvZsv5GRAp" x1="32" x2="32" y1="50.913" y2="39.087" gradientUnits="userSpaceOnUse"><stop offset="0" stop-color="#ffc050"/><stop offset=".004" stop-color="#ffc050"/><stop offset=".641" stop-color="#ffbe75"/><stop offset="1" stop-color="#ffbd85"/><stop offset="1" stop-color="#ffbd85"/></linearGradient><path fill="url(#UsAA~nDm8SXvpvZsv5GRAp)" d="M54.5,47h-45C7.567,47,6,45.433,6,43.5v0C6,41.567,7.567,40,9.5,40h45c1.933,0,3.5,1.567,3.5,3.5v0C58,45.433,56.433,47,54.5,47z"/></svg>